<svg id="Ebene_1" data-name="Ebene 1" xmlns="http://www.w3.org/2000/svg" viewBox="0 0 1920 1080"><defs><style>.cls-1{fill:#11ae59;}</style></defs><path class="cls-1" d="M1421.84,376.15c-78.21-1.11-127.74,32.75-165.2,87.54-8.45,12.36-13.76,26.34-14.47,42-1.22,27.13,17.92,45,47.81,41.22,42.94-5.49,72.45-32.72,94.59-68.27a45.48,45.48,0,0,0,6.45-22.56c.53-19.83-7.71-28.24-26.91-26.27-28.49,2.93-72.85,45.2-77.24,73.69-1.61,10.46,4.65,15.87,13,20.07,1.83.93,3.66,3.12,1.63,5.37-.9,1-2.89,1.44-4.37,1.41-13.24-.23-25-14.26-23-30.17,1.15-9.07,2-19,7.71-27.08,19.77-28.29,44.32-49.48,80.09-53.67,27.7-3.25,42.08,10.73,39.75,38.41a65.31,65.31,0,0,1-2.17,11.68c-11.87,42.79-70.2,87.27-114.2,87.18-28.29-.06-50.9-15-55.4-39-2.89-15.41-2.73-31.14,3-46.8,11.89-32.36,35.58-54.06,63.2-71.65,55.56-35.39,114.85-46.35,178.25-23.19,3,1.08,6.2,1.91,8.68,3.72,9.28,6.8,17.43,6.35,27.76.46A91.42,91.42,0,0,1,1558.29,368c28.38.58,48.25,15.07,54.7,42.73,2,8.53,2.73,15.1,13.92,14.54,8.49-.43,5.4,5.32,3.12,9.37q-14.54,25.85-29.34,51.54c-16.13,28.13-32.37,56.19-48.46,84.34-2.35,4.11-4.19,8.52-6.19,12.83-2.58,5.53-8.35,12.55-1.87,16.84,6.24,4.13,10.74-4.1,15.21-8.08,12.53-11.16,21.79-25.09,31.42-38.63,16.36-23,40-35.36,65.26-45.23,4.24-1.66,9.38-1.76,14-1.46,14.3.94,20.28,9.91,16.57,24.15-1.12,4.27-6.14,9.35-1.31,12.72,6.05,4.23,9.81-2.59,13.27-6.18,9.57-9.89,21.48-16.27,33.37-22.32,11.74-6,23.5-12.17,38.2-5.62,5.88,2.62,14.57-1.61,22-1.87,11.17-.38,12,.84,6.61,10-11.53,19.77-23.41,39.34-35.09,59a120.16,120.16,0,0,0-6.76,12.53c-.83,1.88-1.25,4.85-.32,6.41,2.57,4.35,5.74.9,7.73-.74,14.1-11.6,27.6-24.11,38.19-38.94,16.39-23,39.14-36.15,64.32-46.53a36.54,36.54,0,0,1,20.89-2.29c10.17,1.88,17.07,11.53,14.07,20.75-2.65,8.15-9,15.48,3.87,20.77,2.6,1.08.77,6-1.31,8.43-15.38,18.08-30,37-51.2,48.9-24.15,13.52-43.08,7.73-52.85-18-3.69-9.72-5.82-9-11.53-3.27-7.85,7.85-15.7,15.94-25.53,21.08-17.55,9.19-28,24-37.07,41a183.82,183.82,0,0,1-61.87,67.65c-9.33,6.14-18.93,11.07-30.66,11.33-22.36.5-31.42-13-22-33.85,6.41-14.22,17.74-24.12,30.14-32.82a323.26,323.26,0,0,1,57.82-32.21c5.91-2.55,12-4.29,14.92-10.66,1-2.07,2.86-4.81,2.2-6.28-1.19-2.65-3.71-.22-5.78.08-23.57,3.33-29.26.13-35-23.48-2.34-9.68-4.44-7.86-9.41-2.6-7.62,8.07-15.77,15.46-25.4,21.22-24.82,14.84-43.35,9.61-54.89-17.22-3.28-7.61-3.59-8.23-8.85-1.77-7,8.55-14.4,16.9-24.53,22.14-15.43,8-28.25,1.56-31.17-15.55-1.85-10.82,1.89-20.29,6.84-29.35,6.07-11.1,13-21.73,18.85-32.93,2.12-4.06,9.54-9.92,2.09-13.41-6.29-2.94-15.68-5.06-21.39,3.21-3.56,5.18-6.22,11-9,16.68-14.39,29.09-29.43,57.86-48.46,84.22-20.75,28.73-48.62,49.64-78.29,68.07-10.82,6.72-23.58,9-36.57,7.42-3.16-.37-6.5-1.31-7-5-.64-4.57,3.28-4.82,6.14-4.72,41.3,1.45,65.22-24.5,84.39-55.7,21.09-34.32,38-71.12,59.86-105,5-7.7,3.69-11.07-5.84-10.8-1.93.06-5.47-1.78-5.6-3a5.23,5.23,0,0,1,6-5.72c18.09,2.85,21.67-12.49,29.08-22.91a4.22,4.22,0,0,0-1-6.19,4.92,4.92,0,0,0-6.32.63c-3,2.62-5.67,5.57-8.8,8-18.91,14.38-39.93,20.47-62.17,10.29-12.77-5.84-16.85-2.46-22.27,9.2-7.28,15.66-15.27,31.29-26,45.11-33.82,43.34-78.53,64.59-133.08,65.07-16.57.14-30.84-6.83-41.87-19.29-9-10.18-9.94-27.82-2.58-37.5,4.52-6,10.15-10.26,18.15-9,6,.95,10.23,4.34,11.11,10.66,1.17,8.37-.31,15.89-8.32,20.58-3.24,1.89-9.52-.08-10.06,3.9-.85,6.13,5.29,9.75,9.63,12.51,13.17,8.38,28.31,10.57,43.23,7.83,28.12-5.15,51.4-19.54,69.78-41.53s32.69-46.61,48.56-70.25c22.59-33.66,47.08-65.71,78-92.2,7.38-6.33,5.7-9.38-1.68-13.15C1456.7,377.9,1435,375.4,1421.84,376.15ZM1567.15,483.6l-4.05-4.05c4.46-9.57,13-15.69,20-23s13.38-15.33,17.75-24.7c1.28-2.76,3.76-5.53.9-8.44-3-3.05-5.84-.38-8.2,1.29-24.45,17.38-37.33,43.81-52.14,68.56-1.07,1.8-4.82,10.55,1,12.62,6.34,2.26,14.63,3.37,20.27-1.65a33.72,33.72,0,0,0,10.76-19.87Zm32.34-78.77a61.34,61.34,0,0,0-3.21-7.06c-7.84-13.56-20.57-18.93-35.31-19.95-16.91-1.17-32.27,5.18-47.67,11.1-8.29,3.2-8.84,6.85-2.19,12.87,18.53,16.81,21.3,37.48,13.76,60.39-.73,2.23-2,4.47-2,6.73-.11,3.78,2.62,6,5.82,4.27s6.08-5,8.57-8c16.58-20,32.19-41,57.43-51.37C1597.52,412.66,1599.71,410.13,1599.49,404.83Zm-94.65,27.25a40.64,40.64,0,0,0-5.18-21.88c-4-7.09-8-8.48-14.29-2.34-19.55,19-33.65,41.78-46.58,65.46-3,5.46-.89,8.49,4.35,11a37.52,37.52,0,0,0,13.63,3.57C1483.71,490,1504.72,467.09,1504.84,432.08Zm125.91,284.39c9.17-.18,16.63-4.33,23.41-10.09,19.06-16.21,30.94-37.74,43.32-58.88,1.16-2,2.25-4.22.09-6.31s-4.33-.87-6.32.21c-22.15,12.05-44.59,23.64-62.28,42.35-5,5.33-8.82,11.18-10.37,18.29C1616.28,712.62,1620,716.86,1630.75,716.47Zm71.49-114.75c4.47.07,8.19-1.12,11.08-4.11,19.91-20.53,37-43.14,50-68.74,1.82-3.58,2.87-7.68-.57-10.93s-7.17-1-10.86.43c-8.42,3.3-14.38,9.71-20.31,16-15.18,16.15-29.2,33.05-35.49,55.1C1694.08,596.4,1696,600,1702.24,601.72Zm-81.13.1c1.1-.19,4.42-.16,7.22-1.37,23.36-10.07,39.18-28.37,52.46-49.26,1.07-1.67,1.72-4.94-1.49-5.78-2-.53-4.82-.6-6.46.43-13.53,8.47-28.81,13-43.95,15.81-15.89,3-20.15,13.46-22.77,26.08C1604,598.13,1608,602,1621.11,601.82Zm212.11.07c2.68-.13,4.28-.07,5.83-.3,14.54-2.15,53-37.42,56.1-51.55a5.88,5.88,0,0,0-1.12-4.11c-1.72-2.38-4.49-1.8-6.36-.66-14.29,8.79-30.58,12.07-46.21,17.15-15.32,5-20.6,12.29-20.37,27.2C1821.23,598.58,1825.3,602.78,1833.22,601.89Zm-162.15-80.71c-1.45-3.68-3.39-6-8.22-3.76-14.48,6.83-24.58,18.81-35.31,30.05-.87.9-1.12,2.39-1.66,3.61,1.45.06,3.08.6,4.32.12,13.89-5.36,26.78-12.44,37.51-23C1669.24,526.75,1669.71,524.15,1671.07,521.18Zm213.41-1c-.85-2.26-1.58-4.21-4.76-3.74-6.83,1-37.63,26-37.35,30.56,0,.52.65,1.42,1,1.44,15.52.9,24.91-10.75,36.36-18.1,1.8-1.16,2.92-3.61,3.94-5.66C1884.36,523.36,1884.25,521.66,1884.48,520.19Z"/><path class="cls-1" d="M189.77,493.72c-13.89,5.39-27,12.85-42.74,12.69-32.92-.35-54.79-26.24-48.29-58.52,7.42-36.82,30.47-61.64,62.12-79.42,18.24-10.24,37.78-15.85,58.94-14.42,26.68,1.82,39.85,20.48,35.42,46.78-2,12.12-10.12,21.41-11.65,33.42-1.59,12.38,4.61,18.33,16.29,14,9.93-3.7,16.38-12.1,23.67-19.35,3.92-3.9,7.69-11.65,13.72-.63,3.23,5.88,8.32-.18,11.68-2.48,25-17.09,51.74-30.51,81.75-35.46,21.74-3.59,43.81-5.38,65.79-7.28,6.11-.53,12.6.76,18.59,2.42,4.72,1.3,8.27,5.05,6.51,10.79-1.44,4.72-5.56,5-9.63,4.49a51.1,51.1,0,0,1-9.3-1.78c-26.65-8.44-48,1.35-66.67,19.65-19.36,19-33.3,41.93-45.78,65.82-13.91,26.59-27.25,53.49-47.25,76.37-15.35,17.57-33,31.64-54.84,40.27a41.83,41.83,0,0,0-5.81,3.44c2.07.46,4.15,1.37,6.21,1.31,21.29-.63,40.34-7.27,55.52-22.64,8.87-9,17.05-18.7,25.25-28.33,11.87-14,28-24.24,35.2-42.28,1.84-4.59,7.45-5.58,12.43-5.14,4.48.39,10.4-2.25,13,2.16,1.93,3.28-2.58,6.94-4.53,10.31q-15.45,26.61-30.81,53.29c-2,3.41-4.19,6.71-5.94,10.24-2.78,5.6-7,12.36-.77,17.09,5,3.75,9.77-3.6,15.15-4.31a30.32,30.32,0,0,1,2.55,3.11c-5.25,11-14.14,14.91-25.38,11.45-10.24-3.16-14.5-11.42-14.76-21.94-.07-3.12.59-7.76-1.09-9-2.58-1.92-5.36,1.54-7.31,3.76q-37.25,42.3-91.71,28.27c-5-1.27-9.19,1.16-13.75,1.78a122,122,0,0,1-23.56.48c-3-.19-5.21-3.14-5.08-6.87a5.58,5.58,0,0,1,4-5.26,43.6,43.6,0,0,1,23.29-2c16.92,3.2,31.35-3.3,43.27-14.2,21.78-19.94,35.77-46,51.94-70.27,3.39-5.09,1.67-9-5.06-9-14.23-.11-28.47.29-42.68-.21-9.42-.33-13.93,6.28-19.44,11.79-23.45,23.47-46.11,47.81-73.86,66.51-28.7,19.35-59.07,33.35-94.81,30.45-18.59-1.51-35.32-7.42-48.82-21.1A40.14,40.14,0,0,1,9.53,573.33c-2.27-11.16,3-23.87,11.78-29.11,5.55-3.31,11.42-5.12,18-2.05,7.46,3.51,6.54,10,6.32,16.32-.24,7.36-4.57,11-11.21,13.42-13.85,5-14.53,7.18-4.14,15.71,26.25,21.54,55.59,20.48,84.65,8.19,31-13.1,56-35.13,78.62-59.72,4.82-5.22,9.28-10.78,13.83-16.24,2.94-3.53,9.19-6.57,7.22-11.22-1.9-4.47-8.37-2.16-12.8-2.19-5.86,0-9-1.87-8-8.25,8.64-.51,17.28-1.27,25.93-1.44,5.68-.12,11.24-.26,15-5.12,9-11.58,22.36-19.42,28.7-33.32q3.06.68,3.06-1.74c-.52,0-1.23-.13-1.5.15a9.11,9.11,0,0,0-1.19,2c-2.37-.05-4.74,0-7.11-.16-25.61-1.29-35.8-17.31-26.25-41.69,2.85-7.28,6.9-14.1,9.79-21.37,6.5-16.36,3.56-21.81-12.72-29.13a35.66,35.66,0,0,0-20.79-2.51c-22.12,3.57-42.57,11.5-59.51,26.8-19.64,17.74-36.74,36.75-36.88,65.8-.15,31,22.72,47.15,52.29,36.86,19.59-6.82,34-19.25,45-36.51,2.39-3.74,3.39-13.42,10.87-8.1,6.09,4.33-.77,10-2.9,14.51C209.82,475.66,197.75,483,189.77,493.72ZM397,401.7c-3.89.24-8-.29-11.64.83-51.46,16-88.72,52.53-126.33,88.48-1,1-1.38,2.6-2,3.93,2,.57,4.08,1.61,6.12,1.63,14.21.15,28.41-.14,42.61.17,6.21.14,10.35-2.06,13.53-7.38,20.36-34.12,47.53-62.28,77.35-88.08,1.65-1.11,5.71,1.1,4.8-2.89C401.25,397.52,397.17,398.52,397,401.7Z"/><path class="cls-1" d="M363,596.19c18.12-24.88,35.34-50.36,50.3-77.31,1.53-2.76,3-5.73,5.23-7.89,6.62-6.45,16.23-5.65,22.07-2.31,7.42,4.24-1,10.8-3.3,15.39-9.67,19-20.45,37.46-30.62,56.22a80.24,80.24,0,0,0-5.33,13.13c-.68,2.08-1.09,4.54,1,6.55,2.91,2.76,6.46,1.87,8.63.17,12.48-9.82,24.71-20.42,32.64-34.17,16.79-29.09,44.23-43.68,73-56.86,3.43-1.58,8.24-3.22,11.3-2,11.49,4.54,22.74.53,34.07.55,11.16,0,13,2.76,6.51,12.37-14.15,21-26.41,43.07-38.41,65.3-1.89,3.49-7.87,7.92-2.33,12,3.26,2.38,6.82-2.12,9.63-4.77,23.94-22.65,49.44-43.92,65-73.95,4-7.65,9.62-12.43,18.91-11.24,3.78.49,9.1-1.54,10.94,1.92s-2.44,7-4.41,10.36c-11.14,19-22.31,38.06-33.26,57.21a97.84,97.84,0,0,0-6.83,15c-1.07,2.95-.91,6.78,1.92,8.68s6,.87,8.77-1.11c3.83-2.74,7.74-5.38,11.61-8.07a30.85,30.85,0,0,1,2.67,3.26c-1.06,5.09-5.06,8-8.72,10.83-15.58,12.13-30.06,7.15-35.91-12.15-3.59-11.84-4.22-12.36-13-4.5-11.23,10-22.67,19.6-36,26.87-10.43,5.7-13.29,17.31-18.89,26.58-15.23,25.23-32.19,48.8-56.37,66.27-12.88,9.31-25.95,17.89-43.05,17.1-17.3-.8-25.55-11.21-20.84-28.09,3.79-13.56,13.16-23.19,23.75-31.8,19.16-15.57,40.89-26.69,63.15-37,8.36-3.86,18.3-6.28,20.14-17.73a9.53,9.53,0,0,0,1.77-1.17c.23-.23.05-.84.06-1.29q-2.46.1-1.42,2.79c-1.51-.39-3.05-1.22-4.53-1.12-24.76,1.62-25.17,1.85-35.76-20.63-3.53-7.5-5.68-7.94-11-2.15-5.88,6.42-11.79,13-18.67,18.25-13.11,9.94-26.67,9.09-34.18-5.11-7.17-13.56-11.79-3.41-17.76-1.3A30.32,30.32,0,0,0,363,596.19Zm39.16,120.29c6,.34,12.78-1.94,18.57-6.24,22.12-16.43,34.42-40.36,47.66-63.53a5.26,5.26,0,0,0,.26-4.28c-1.36-2.72-3.88-1.94-5.93-.89-23.91,12.18-47.35,25.11-65.21,45.88a45,45,0,0,0-7.11,12.06C385.75,710.74,389.26,716.19,402.16,716.48ZM467,593c-.33,1.17-.08,5.8,3.52,7.76,4.41,2.41,9.26.61,12.93-3,19.33-18.9,35.78-40,48.39-64,1.1-2.08,2.46-4.29,2.61-6.52.21-3,.32-6.75-1.24-9-3.05-4.37-7-1.38-10.16.61-25,15.49-42.06,37.76-54.13,64.19C468,585.15,468,587.69,467,593Zm56.8,10.22-1.34-1-.09,1.84Z"/><path class="cls-1" d="M610.07,591.36q23.32-37.07,46.65-74.14c5.36-8.53,16.58-12.73,25.74-9.55,4,1.39,3.94,4,2.16,7.2q-11.94,21.86-23.77,43.77c-5.26,9.73-10.7,19.38-15.55,29.31-2,4.08-4.39,9.79.68,12.76,4.44,2.6,8.94-.79,12.41-4.29,8.28-8.34,17.11-15.73,21.27-27.84s12.82-20.2,25.91-25.41c17.69-7,24.89-25.28,33.94-40.77,4.36-7.47,6.63-16.24,13.5-22.08,3.79-3.22,8.57-4.9,12.73-1.19,3.4,3.05,2.14,7.45,0,10.85-3,4.66-5.86,9.7-10,13.24-9.24,8-9.8,18.07-6.92,28.3,3,10.54,2.9,27.79,11.22,29.58,9.91,2.14,13-15,20-23,3.59-4.13,6.19-9.15,9-13.91,1.51-2.55,3-4.83-.28-8-7.33-7-7.22-8.35,1-9.65,8.56-1.36,11.52-7.66,15.42-13.41,3.53-5.23,5.92-11.34,10-16.08,6.09-7.15,16.22-6.11,21.94-2.85,6.73,3.85-1.54,9.91-3.64,14.88-.92,2.16-2.63,4-3.77,6-3.34,6.07-6.14,12,5.22,11.23,3.22-.2,7.37.23,7.75,3.53.62,5.4-4.27,6.21-8.14,5.6-11.38-1.8-17,4-22,13.46-10.3,19.56-22.24,38.24-32.5,57.81-6,11.54-4.93,12.64,9.64,13.58,2.66.17,5.37.88,5.33,2.41-.05,1.9-2.09,4.41-4,5.5-12.24,7.13-25.34,4.82-31.92-8.29-4.05-8.07-5.84-6.38-11.07-2.59-8.93,6.46-18.11,12.06-29.53,14.18-16.17,3-30,.89-39.24-13.67-4.1-6.49-6.54-4.5-10.14-.51a34.47,34.47,0,0,1-3.39,3.34c-20.84,17.56-25.85,17.06-42.75-4.93-3.4-4.42-6.63-2.68-10.25-1.12A30.85,30.85,0,0,0,610.07,591.36Zm128.54-47.62c-.46-5.38,0-15-1.57-15.41-7.49-1.72-9.3,6.6-13.44,10.91-3.31,3.43-5.34,7.18-4.23,12.64,1.92,9.4-4,14.48-11.69,18.11-4.94,2.34-10,4.46-14.72,7.17-6.5,3.73-7.68,10-5.28,16.36,2.58,6.86,8.81,8.59,15.57,7.69,8.16-1.08,14.74-5.43,19.73-11.74C733.52,576.14,740.29,561.39,738.61,543.74Z"/><path class="cls-1" d="M962.13,539.81c8.31-18.56,24.27-32.66,30.39-52.61,1-3.36,4.65-6.48,7.84-8.46s7.65-2.56,11.16.07c4.44,3.32,1.66,7-.28,10.26-1.6,2.71-3.1,5.81-5.48,7.68-17.75,13.93-14.91,31.06-8,48.93.28.73.84,1.36,1.09,2.09,9.51,28.48,6.84,40.67-11.83,54-22.24,15.89-40.07,15.7-61.71-2.1-5-4.13-8.4-1.93-12.69-.92-1-.76-2-1.56-3-2.4,2.37-6.78,10.07-9.77,11.59-17.45,4.48-22.69,18.58-35.7,41.26-39.5,3.5,23,3.5,23-17.26,33.55-11.13,5.65-15.13,14-10.69,22.21,4.16,7.73,15.41,9.18,24.89,1.83,14.33-11.11,23.82-25.33,22.52-44.52-.56-8.22,4-19.41-3-23.8-5.38-3.37-6.17,11.84-14.67,12A6.63,6.63,0,0,1,962.13,539.81Z"/><path class="cls-1" d="M853.41,601.82c-15.13,14.78-25.16,14.63-34.82-1.82-4-6.89-5.52-14.31-13.57-3.68-1,1.39-4.91,2.33-6.25,1.5-4-2.47-.91-5,.9-7.37,18.12-23.72,38.6-45.76,51.68-73.08a22.66,22.66,0,0,1,5.76-7.32c3.86-3.26,21.47-4.09,22.43-1.12,1.94,6-3.1,10.1-5.69,14.65q-14.58,25.62-29.93,50.82c-2.94,4.79-5.29,9.41-6.28,15.05-2.26,12.84,4.54,12.9,13.6,10.4C852,600.49,852.71,601.14,853.41,601.82Z"/><path class="cls-1" d="M860.7,589.93c15.48-25.47,30.82-51,46.52-76.34,3.36-5.42,19.82-8.64,25.66-5.93,5.2,2.41.93,5.34-.06,7.19-9.24,17.28-18.87,34.35-28.26,51.56-4.13,7.57-8.12,15.23-11.82,23-1.63,3.44-3.59,7.65,0,10.86,3.37,3,7.34,1.17,10.88-.47,2.1-1,4-2.29,6-3.46,1,.84,1.94,1.64,3,2.4-17.64,18.69-27.6,18.43-40.51-2-2.69-4.27-5.27-4.54-9.08-4.28Z"/><path class="cls-1" d="M863,592.45a5.16,5.16,0,0,1-4.7,4.82c-.82-.88-1.66-1.75-2.51-2.61q2.45-2.35,4.87-4.73Z"/><path class="cls-1" d="M858.34,597.27a5.19,5.19,0,0,1-4.93,4.55c-.7-.68-1.43-1.33-2.17-2l4.59-5.19C856.68,595.52,857.52,596.39,858.34,597.27Z"/><path class="cls-1" d="M1567.15,483.6c-3.62,4.65-10.05,11.63-13.44,7.4-3.93-4.91,4.55-8.67,9.39-11.45Z"/></svg>