<svg id="AP-Logo" data-name="AP Logo" xmlns="http://www.w3.org/2000/svg" viewBox="0 0 1920 1080">
  <defs>
    <style>
      .cls-1 {
        fill: #10ae59;
      }

      .cls-2 {
        fill: #f9c313;
      }

      .cls-3 {
        fill: #f10e10;
      }

    </style>
  </defs>
  <path class="cls-1" d="M1082,324.1c4.12-8.46,7.66-15.52,11-22.67a377.53,377.53,0,0,1,46.69-75.17,330.32,330.32,0,0,1,51.43-51.75,270.12,270.12,0,0,1,63.28-37.57c20.25-8.65,41.46-13.83,63.31-16.59a224.89,224.89,0,0,1,58.93.44,216,216,0,0,1,44.25,10.49,295,295,0,0,1,36,16.2c20.2,10.54,38,24.55,54,40.71a243.15,243.15,0,0,1,41.33,55.37,263.66,263.66,0,0,1,22.93,55.75,334.24,334.24,0,0,1,10.68,58.7,358.76,358.76,0,0,1-.72,68.82c-1.51,14.84-4.2,29.6-7.1,44.25-5.1,25.69-12.91,50.62-22.37,75.05A666.3,666.3,0,0,1,1520.78,622a818.16,818.16,0,0,1-55.46,88.4c-10,13.94-20.56,27.49-31.1,41a1018.56,1018.56,0,0,1-71,81.6c-19.83,20.54-40.44,40.36-61.1,60.08-15.3,14.59-31,28.79-46.94,42.68-38.83,33.84-79.28,65.67-120.43,96.62-10.72,8.06-21.67,15.82-32.59,23.61-1.5,1.08-4.34,2.68-5,2.14-2.22-1.85-3.83-4.48-5.39-7-.18-.29,1.23-1.84,2.13-2.51,9.61-7.08,19.31-14,28.9-21.15,31.2-23.08,62.14-46.51,91.65-71.73,25.53-21.81,51-43.68,75.89-66.26,28.77-26.13,56.08-53.79,82.32-82.48,22.68-24.8,44.45-50.4,64.73-77.19,13.35-17.64,26.42-35.53,38.59-54,24.68-37.45,46.18-76.67,63.46-118.15A505.72,505.72,0,0,0,1564,484.14c8.46-34.26,13.25-69.08,12.44-104.48a314.32,314.32,0,0,0-6.17-55,261.4,261.4,0,0,0-18.93-58.84c-13.34-28.64-31-54.19-54.26-75.86a229,229,0,0,0-71.31-45.15,212.72,212.72,0,0,0-54-13.8,219.13,219.13,0,0,0-61.26,1.12c-26.83,4.24-52,13.36-75.8,26.35-26.21,14.3-49.09,32.81-69.44,54.62a361.89,361.89,0,0,0-49.13,67.35,445.17,445.17,0,0,0-28.8,60.47c-.72,1.85-1.65,3.62-2.54,5.4a5.16,5.16,0,0,1-5.41,3.18c-2.79-.22-3.75-2.08-4.31-4.42-1.76-7.25-3.47-14.51-5.3-21.75a201,201,0,0,0-22.09-52.76,251.8,251.8,0,0,0-57.08-66.49,307.81,307.81,0,0,0-70.82-43.89c-15.72-7-31.76-13.2-48.42-17.3-24.84-6.11-49.89-8.59-75.61-4.15-28.66,4.94-55.33,14.5-79.94,29.79-31.68,19.67-56.52,46.06-75.22,78.24a264.18,264.18,0,0,0-30.4,78.27c-3,14.13-5.15,28.44-7.78,42.65-.3,1.62-1.25,4.45-1.89,4.45a31,31,0,0,1-8.59-1.55c-.45-.13-.53-2.27-.39-3.43,3.92-34.09,11.69-67.26,25.65-98.67,21.18-47.64,53.24-86.16,98.57-112.66A216.32,216.32,0,0,1,800,127.25a192.36,192.36,0,0,1,60.9,2.37c31,6.18,60,17.87,87.63,33a292.44,292.44,0,0,1,83.17,67.15c18.37,21.54,33,45.45,42.86,72.11,1.55,4.19,2.62,8.55,4,12.81C1079.48,317.43,1080.53,320.12,1082,324.1Z" />
  <path class="cls-2" d="M882.25,211.85c5.43,0,10.55-.71,15.39.17,7.59,1.37,15.22,2.5,22.72,4.75,7.06,2.12,14,4.59,21.15,6.39,8.85,2.25,16.79,6.41,24.73,10.33,16,7.92,30.85,18,44.83,29.19,6.15,4.92,12.67,9.66,17.75,15.58C1039.71,291,1051,303.52,1059.37,318c4.13,7.14,8.86,14.34,10.57,22.82.6,3,2.22,5.82,3.56,8.63,2.29,4.84,5.18,9.38,5.66,15,.1,1.18,2.12,2.21,3.26,3.31a37.26,37.26,0,0,0,2.15-3.44c3.32-6.84,6.19-13.94,9.94-20.54,6.75-11.9,13.4-23.93,21.22-35.12a214.38,214.38,0,0,1,29.09-33.39,326.6,326.6,0,0,1,27.12-22.87,140.07,140.07,0,0,1,28.85-16.71c9.14-3.93,18.38-7.74,27.84-10.77,6.77-2.18,14-2.87,21-4.43a121.37,121.37,0,0,1,28.07-2.74c13,.16,25.48,2.67,38.13,5.2a158,158,0,0,1,23.87,7.23,142.72,142.72,0,0,1,26.22,13.11c16.2,10.25,31,22.35,43.2,37.32a235.67,235.67,0,0,1,17.78,24.46c6.66,10.75,11.58,22.24,16.67,33.64,3.35,7.49,4,16.18,7.22,23.74,2.65,6.24,1,13.37,5,19.06.12.18,0,.49.06.74.94,19.13,5.34,38.21,2.73,57.34-1.29,9.41-1.71,18.79-2.66,28.18-.41,4.1-1.82,8.09-2.49,12.17s-.76,7.95-2.51,12c-2.37,5.55-2.52,12-3.89,18.05-1,4.21-2.24,8.35-3.56,12.47-1.68,5.24-3.49,10.43-5.32,15.62-2,5.64-3.77,11.38-6.14,16.87-4.77,11-9.62,22-14.89,32.85-6.87,14.07-13.62,28.26-21.56,41.74-3.86,6.57-8.27,13-12.46,19.41-5,7.68-10.4,15.09-15.74,22.54-7.64,10.63-15,21.47-23.18,31.72-10.69,13.46-22.38,26.14-32.92,39.72-10,12.91-22.42,23.52-33,35.84-3.65,4.25-7.15,8.67-11.17,12.54q-19.5,18.81-39.37,37.25c-12.79,11.84-25.64,23.62-38.77,35.07-9.83,8.57-19.85,17-30.37,24.7-9.76,7.14-19,14.86-28.57,22.24-9.73,7.52-19.88,14.49-29.55,22.07-2.76,2.16-4.09,2-5.84-.66-.8-1.23-2.12-2.16-2.78-3.44a3.17,3.17,0,0,1,.23-2.88,30.15,30.15,0,0,1,4.77-4.4c10.28-7.74,20.7-15.3,30.89-23.15,7.13-5.5,13.93-11.43,21-17.06,9.06-7.26,18.48-14.1,27.25-21.69,13.45-11.63,26.32-23.93,39.72-35.6,19.59-17.06,38.12-35.19,55.93-54,12.21-12.93,24.4-25.91,35.94-39.43,12.28-14.4,24-29.33,35.56-44.29,7.83-10.07,15.85-20.13,22.46-31,9.71-16,20.68-31.28,28.58-48.41,4.69-10.16,11.09-19.55,15.64-29.77,7.5-16.86,15.52-33.57,20.13-51.59,1.94-7.59,3-15.67,6.46-22.51,2.76-5.44.45-11.91,4.86-16.51.14-.15.1-.48.13-.72,1.13-8.54,2.61-17.06,3.3-25.63,1-12.62,4-25.1,2.82-37.89-.86-8.88-1.51-17.78-2.54-26.64-1-8.6-1.74-17.29-3.73-25.67a210.05,210.05,0,0,0-8.81-27.65c-3.51-9-7.17-18.13-12.32-26.2-6.72-10.52-13.4-21.1-22.07-30.44-6.31-6.79-13-13.09-19.79-19.23a119,119,0,0,0-29-18.76c-8.51-4-17.23-7.58-25.93-11.18-4-1.66-8.46-2.13-12.61-3.18a129.06,129.06,0,0,0-49.62-3c-11.26,1.58-22.84,2.75-33.8,7.39-7.86,3.33-16.28,5.49-23.83,9.71-7.14,4-14.4,7.8-21.26,12.24a193.28,193.28,0,0,0-28.89,23.42C1144,291.68,1136,301.6,1128.41,312c-5.31,7.21-10.57,14.37-15.15,22.06a365.42,365.42,0,0,0-21.83,41.74c-1.93,4.48-3,9.37-5.14,13.71-1.35,2.69-4,6.48-6.18,6.61-3.3.2-5.21-3.7-6.23-7.1a20.76,20.76,0,0,1-1.11-3.49c-1.14-9.95-5.39-19-8.19-28.41-3.67-12.35-10-23.26-16.09-34.32-3.37-6.09-7.89-11.55-11.91-17.29-7.57-10.79-16.8-20.05-26.76-28.6-9-7.71-18.05-15.24-28.5-21-6.3-3.45-12-8-18.37-11.27a218.54,218.54,0,0,0-22.08-9.33c-7.39-2.8-15-5.13-22.45-7.65a24.34,24.34,0,0,0-3.56-1.1c-6.22-1.07-12.42-2.46-18.69-3-6.46-.54-13-.17-19.49-.29-10.5-.2-20.35,2.91-30.48,5.17-9.92,2.21-18.94,6.23-28.21,9.87a80.86,80.86,0,0,0-13.51,6.61c-14.59,9.18-28.52,19.3-39.37,32.88-10.45,13.07-20.48,26.47-26.25,42.51-3.5,9.71-8,19.09-11.07,28.91-2.06,6.5-1.69,13.79-3.88,20.23-3.67,10.83-1.5,22.27-4.57,33.06-.34,1.19-.44,2.44-.68,3.66-.41,2.11-.45,5.8-1.35,6-2.78.7-5.9.16-8.87-.12-.38,0-.94-1.47-.88-2.22.65-8.91,1.31-17.83,2.16-26.73a146.84,146.84,0,0,1,5.3-27.44c1.23-4.22,2.29-8.49,3.45-12.73a191.52,191.52,0,0,1,16.74-41.52c6.55-12,14-23.52,23.26-33.34s18.72-19.37,30.35-26.36c7.45-4.49,14.18-10.17,22.66-13,6.83-2.29,13.33-5.52,20.1-8,5.26-2,10.7-3.41,16.06-5.1a12.94,12.94,0,0,1,2.11-.68C860.7,213.48,871.44,210.07,882.25,211.85Z" />
  <path class="cls-1" d="M523.59,582.1c-1.36.43-2.73.84-4.08,1.31-7.69,2.67-13.84,0-16.9-7.61-1.07-2.66-1.46-5.59-2.49-9.73-2.47,2.87-4.29,5.2-6.34,7.3a78.64,78.64,0,0,1-8.13,7.69c-7.78,6-15.21,4.17-19.14-4.86-1-2.37-1.84-2.7-3.59-1.06s-3.55,3.51-5.37,5.23c-3.45,3.26-7.3,5.12-12.18,3.46-5.09-1.74-7.34-5.67-8.27-10.61-.18-1,0-2-.15-3-.34-2.77-1.79-2.74-3.5-1.18-2.41,2.18-4.61,4.59-7,6.73-8.93,7.89-19.57,10.76-31.17,9.6-7.67-.77-15.2-1.8-22.88.06a16,16,0,0,1-8-.63c-1.16-.35-2.51-2.65-2.38-3.94.11-1.11,2.08-2.69,3.41-2.89a40.26,40.26,0,0,1,10.45-.4c12.44,1.47,22.07-3.82,29.32-13,8-10.12,15-21,22.26-31.62,2-3,1.61-3.7-2.12-3.74-8-.1-16,.16-24-.11-3.55-.11-5.39,2-7.56,4-10.69,10.12-21.15,20.5-32.22,30.19-13.09,11.44-28.15,19.42-45.55,22.09-14.48,2.22-27.73-.58-39-10.7-6.2-5.58-8.54-17.31-2.12-24.17a12.14,12.14,0,0,1,4.15-3c3.59-1.45,7.51-2.21,10.42,1.06,2.48,2.77,2.72,6.28,1,9.77s-4.4,5-9.12,4.85c-1.13-.05-2.26-.05-3.4-.07a23.21,23.21,0,0,0,1,3.33c2.88,6.13,8.4,9.1,14.37,11,13.05,4.15,25.58,2.22,37.65-4,11.2-5.74,20.89-13.51,29.82-22.21,6.92-6.75,13.33-14,21-22.13-4.36,0-7.29.09-10.22,0-1.54-.07-4,.68-3.7-2.21.2-2.16,1.41-3.69,3.91-3.63,2.75.06,5.52-.12,8.24.17,5.07.55,8.92-.79,12.27-5,4.42-5.6,9.62-10.6,14.22-15.57-.41.13-1.51.45-2.58.84a12.65,12.65,0,0,1-14.34-3.48,14.63,14.63,0,0,1-3.24-15.36,106.56,106.56,0,0,1,6-12.79c3.28-6.28,3.64-13-6.55-16.11a24.14,24.14,0,0,0-9.52-1.24c-23.11,2.76-39.7,14.88-49.32,36a35.47,35.47,0,0,0-2.7,14.53c.09,12.85,12.33,21,25.49,17.43a41.72,41.72,0,0,0,24.61-18.3c.81-1.25,1.27-2.77,2.24-3.84,1.18-1.31,3.13-3.48,4-3.18,2.79.93,2.23,3.71,1.23,5.7-7.9,15.66-25.56,28.73-43.52,25.61-14-2.44-20.88-12.25-20.38-26.77.52-15.54,8.87-27.23,20.17-36.79,9.61-8.12,20.61-14.08,33.39-15.61,4.66-.56,9.64-1.08,14.11,0,16.78,3.89,18.74,17.6,13.68,30.24-1.38,3.43-3.45,6.63-4.47,10.14-.62,2.13-.63,5.21.51,6.88,1.58,2.29,4.56,2.37,7.5,1.39,5.24-1.75,8.77-5.51,12.26-9.42a18.15,18.15,0,0,1,3.63-3.64c.62-.38,2.21.32,3,1,.36.28.18,1.9-.29,2.45-1.89,2.19-4,4.2-5.32,7,5.22-3.68,10.3-7.59,15.69-11,16.2-10.27,33.52-17.35,53-18.25,4.71-.21,9.4-1.1,14.09-1.75,6.25-.85,12.41-1,18.42,1.43,2.33.92,3.85,2.37,3.42,5-.5,3-2.93,3.13-5.23,2.85a57.16,57.16,0,0,1-10.31-1.68c-9.78-3-17.54,1.24-25,6.54-9.52,6.75-16.16,16.1-22,25.93s-10.82,20.12-16.43,30.08c-9.4,16.67-20.49,31.87-38.17,40.78-3.49,1.75-7.28,2.9-10.74,4.25,12.36,1.64,22.3-1,31.29-9.41,5.58-5.24,10.31-11.38,15.4-17.14,2.53-2.86,3.9-6.63,8.64-7.53,2-.38,4.09-3.71,4.86-6.11,3.05-9.44,9.65-11.42,18.39-9.69a9,9,0,0,1,1.17.5c-4.38,7.54-8.7,15.05-13.07,22.52-2.88,4.93-5.81,9.82-8.72,14.71-2,3.29-4.41,7.78-1.32,10.16s6-2,8.39-4.39c8.65-8.78,14.26-19.67,20.78-29.93,2.4-3.77,4.52-7.73,7.09-11.38a6.11,6.11,0,0,1,4.08-2.3,103.59,103.59,0,0,1,10.41.31c-1.32,3.07-2.41,6.27-4,9.19-5.34,9.83-10.87,19.55-16.3,29.33a15.12,15.12,0,0,0-1.77,4,36.87,36.87,0,0,0-.36,5.47c1.89-.36,4.38-.08,5.56-1.19,5.55-5.27,11.89-10.24,15.74-16.64,3.7-6.16,8.33-10.84,13.57-15.32a77.72,77.72,0,0,1,22.79-14c5.22-2,10.88-4.31,16.08.59a1.72,1.72,0,0,0,1.65.18c4.46-4.5,9.82-.7,16.11-2.56L539.67,579.2c10.75-5.68,18.9-13.77,26.36-22.68,2.33-2.79,5.42-4.94,8.08-7.46a23.54,23.54,0,0,0,3.37-3.83,25.75,25.75,0,0,0,3.25-5.86c3.09-9.26,9.43-11.89,19.16-9-2.17,3.91-4.28,7.91-6.57,11.81-4.67,7.93-9.55,15.74-14.07,23.76a31.39,31.39,0,0,0-3.31,9c-.6,2.94,1.23,4.17,4.06,2.87a12.1,12.1,0,0,0,4.67-3.53q11-15.47,21.68-31.18a103.8,103.8,0,0,0,6.15-10.23c1.32-2.52,3-3.56,5.86-3.3,3.2.28,6.44.06,10.68.06-6.19,11.09-12,21.41-17.71,31.76-2.18,3.92-4.37,7.83-6.27,11.88-.56,1.19-.59,3.84,0,4.08,1.33.62,3.56.9,4.65.16,5.52-3.74,10.93-7.41,13.15-14.57s6.64-13.28,14.88-15.33a10.25,10.25,0,0,0,5.25-3.52c5.23-6.86,11.09-13.26,14.34-21.55,1.28-3.28,4.06-6.15,6.69-8.65,1.08-1,3.58-.57,5.43-.78.22,2.07,1.25,4.51.5,6.13a22,22,0,0,1-5.76,7.73c-5.1,4.17-5.52,9.14-3.75,14.82,1.84,5.92,3.75,11.83,6,18.79l17.08-26.16a36.38,36.38,0,0,1-5.36-.61,11.86,11.86,0,0,1-2.78-1.71,24.61,24.61,0,0,1,2.53-3.32c.41-.39,1.44-.29,2.16-.18,4.42.64,7.12-1.45,8.75-5.34a10,10,0,0,1,.78-1.28c2.15-3.35,3.57-8.1,6.64-9.68,3.53-1.82,8.51-.84,13.69-1.12-3,5.19-5.54,9.68-8.17,14.11-1.23,2.07-1,3.23,1.64,3.24a25.25,25.25,0,0,1,5.23.17c.89.19,2.19,1.43,2.16,2.15,0,1-1.05,2.54-1.88,2.72a24.15,24.15,0,0,1-6.69.31,5.69,5.69,0,0,0-6,3.25C689.81,548.09,683.36,559,677,570a5.75,5.75,0,0,0-.73,2.12c-.25,1.86-1.22,4.68-.38,5.44,2.08,1.87,4.91.77,6.57-1.14,6.18-7.07,12.06-14.42,18.19-21.54,5.84-6.8,10.36-14.45,14.46-22.34,1-2,2.08-3.12,4.49-3,3.47.18,6.95,0,11.57,0-5.13,8.66-9.79,16.47-14.4,24.31-3,5.15-6.3,10.19-8.78,15.6-1.12,2.42-1.79,7.13-.52,8.15,2.85,2.3,5.52-1,7.28-3.18,5.35-6.5,10.62-13.12,15.36-20.07,4.34-6.35,8.08-13.12,11.86-19.84,2-3.55,4.24-5.83,8.75-5,2.41.44,4.95.08,8.59.08-3.56,6.63-6.69,12.59-9.93,18.48-4.19,7.62-8.63,15.1-12.61,22.82-1,2-1.74,6-.8,6.67,2.43,1.88,5-.23,7.17-2,4-3.35,7.26-6.86,8.72-12.45,1.92-7.37,6.4-13.37,14.58-15.47a9.33,9.33,0,0,0,4.82-2.87c5.35-6.77,11.63-12.91,14.52-21.43,1.36-4,3.54-7.89,7.6-9.8,1.51-.71,4.37-.89,5.27,0s1.26,4,.5,5.33a37.45,37.45,0,0,1-6.71,8.9c-3.93,3.78-4.79,8-3.36,13,1.53,5.26,2.66,10.74,5,15.62,3.08,6.43,1.25,12-2.34,16.8-6.65,9-16.37,11.88-27.13,11.27a15.24,15.24,0,0,1-10.51-5.07c-3.57-3.83-3.89-3.63-7.94-.38-.78.63-1.48,1.34-2.27,2-7.59,5.81-15,4.55-19-3.89-1.79-3.75-2.28-3.09-4.74-.7-2.88,2.8-6.47,4.91-9.9,7.08s-9,.84-11.94-3.06c-1.61-2.15-2.66-4.74-4.22-7.6-3.4,2.81-6.58,5.77-10.08,8.3-8.32,6-15.16,4.5-19.35-4.72-1.6-3.51-2.48-2-4-.61a34.36,34.36,0,0,1-15,7.89c-10.26,2.36-18.79.77-24-9.58-2.89,2.45-5.38,4.84-8.14,6.86-8,5.84-14,4.68-19.39-3.57-.66-1-1.28-2.05-2.12-3.39-2.55,2.37-4.85,4.6-7.24,6.72-8.31,7.35-18.13,3.52-19.86-7.19-.26-1.65-.41-3.32-.63-5.16-8.83,5.51-15.24,13.68-25,17.18-1.91.68-3,3.78-4.37,5.82-6.53,9.66-12.75,19.55-19.64,28.94-5.81,7.9-13.76,13.66-22,18.91a31.87,31.87,0,0,1-15.51,5c-8.27.47-13.25-5-12.08-13.14.82-5.69,3.91-10.21,7.75-14.2,8.91-9.22,20-15.26,31.32-20.89,4-2,8-4,12.13-5.73,3.75-1.6,6.11-4.13,6.65-8.23l.48-1ZM480.3,472.21c-3.89.79-6.23,1.12-8.5,1.74a104.85,104.85,0,0,0-33.22,16.22c-13.58,9.65-25.61,21-38.47,33.29,8.53,0,15.78-.48,22.93.14,6.51.56,10-1.8,13.55-7.31C447.58,499,460.72,483.53,480.3,472.21ZM478.73,638.8c2.2-1,6.42-2.17,9.67-4.61,10.81-8.07,17.32-19.54,23.38-31.27a3.69,3.69,0,0,0,.57-1.35,23.85,23.85,0,0,0-.06-2.67,7.94,7.94,0,0,0-2.69.46c-6.87,3.93-13.93,7.62-20.46,12.08a81,81,0,0,0-13.45,11.71,21.33,21.33,0,0,0-4.53,9.11C470,636.6,472.28,638.79,478.73,638.8Zm68.74-99.33c.34-4.85-.89-6.07-4.14-4.76-2.71,1.1-5.63,2.42-7.62,4.46a197,197,0,0,0-15.81,17.76c-3,3.86-5,8.55-6.81,13.12-1,2.48-3,6,.44,8.12s6.12-.79,8.31-3a137.65,137.65,0,0,0,23.79-31.35A39.16,39.16,0,0,0,547.47,539.47Zm106.7-2.4c-3.19,4.08-5.85,7.28-8.23,10.66a7.73,7.73,0,0,0-1.18,4.06c-.2,7.23-.83,8.13-7.6,10.88a27.92,27.92,0,0,0-6.57,3.37,6.82,6.82,0,0,0-2.14,8.62,6.61,6.61,0,0,0,8.14,3.48,22.47,22.47,0,0,0,8.34-4.63c5.54-5.31,9-11.89,9.21-19.79C654.28,548.5,654.17,543.26,654.17,537.07Zm128.92.13c-3.22,4.08-5.9,7.28-8.33,10.67a6.48,6.48,0,0,0-1.06,3.82c.31,6.58-1,8.46-7.27,10.92a29.29,29.29,0,0,0-7.18,3.72,7.3,7.3,0,0,0-1.63,8.79,6.43,6.43,0,0,0,7.64,3,18.33,18.33,0,0,0,6.68-3c6.44-5.16,10.55-11.87,11.08-20.25C783.38,549.31,783.09,543.67,783.09,537.2Z" />
  <path class="cls-3" d="M1080.54,416.14c5.66-11,10.44-21.42,16.2-31.27,16.09-27.52,36.68-50.79,65.43-65.73,23.68-12.3,48.64-17.32,75.24-12.37,39.83,7.42,67.85,30.49,86.88,65.43,14.86,27.27,19.6,56.64,18.42,87.4-1.36,35.45-11.09,68.63-25.51,100.74-20.89,46.55-50.2,87.42-83.83,125.46-43.71,49.44-93.71,91.85-146.35,131.33-6,4.51-7,4.55-13.08,0-33.18-25-65.38-51.22-95.7-79.73a742.75,742.75,0,0,1-69.84-74.72C884,632.31,862.57,600,846.08,564.57c-11.84-25.44-20.66-51.88-24.85-79.61A211.09,211.09,0,0,1,820,429c2.51-21.68,8.59-42,19.5-60.79,15.92-27.35,38.18-47.67,68.7-57.61,36.9-12,71.33-5.31,103.34,15.48,18.85,12.24,33.59,28.66,46.15,47.24C1066.67,386.57,1073.65,400.79,1080.54,416.14ZM829.4,450.86c.12,29,5.94,57,16,84,15.67,42.12,39.2,79.74,66.76,115,21.5,27.53,45.32,52.9,70.59,77,29.62,28.17,61.13,54.09,93.71,78.75,3,2.28,5,2.53,8.1,0,16.81-13.64,34.08-26.72,50.76-40.52,37.48-31,72.4-64.67,103.5-102.2,24.36-29.39,46.07-60.51,63-94.83C1317.06,537,1328,504.71,1331.25,470c2.58-27.55,0-54.39-10.33-80.08a123.68,123.68,0,0,0-33.71-47.76,105.7,105.7,0,0,0-49.69-24.39,100.54,100.54,0,0,0-37.27-.56c-26.27,4.69-48.45,17.76-67,36.81-19.17,19.73-32.8,43.06-42.92,68.52-1.38,3.46-2.51,7-4,10.42-1,2.35-2.78,4-5.8,3.82a5.49,5.49,0,0,1-5.07-3.74c-.89-2.06-1.89-4.08-2.65-6.19a213.32,213.32,0,0,0-27.22-52.05c-17.59-24.69-39.52-43.9-68.75-53.74a100.85,100.85,0,0,0-63.34-.81c-34.74,10.87-57.65,35.26-71.89,68C833,408.06,829.25,429.14,829.4,450.86Z" />
  <path class="cls-2" d="M688,784.53c0,2.75.14,5.51,0,8.25-.28,4.53-.37,4.44-5.91,4.26-1.05,0-2.11,1-3.21,1.35-5.77,2-10-.19-11.53-6.18-.91-3.47-2.74-6.69-1.09-10.65a3.56,3.56,0,0,0-3.15-4.9c-2.33,0-4.71,1.23-4.62,4.62.14,5,0,10-.14,15,0,.82-.8,1.62-1.23,2.43-.8-.5-1.92-.83-2.32-1.55a11.94,11.94,0,0,1-1.67-4.67c-.24-3.48,0-7-.06-10.49,0-1.24.44-3-.2-3.65-4.57-4.47.38-7.91,1.22-11.65.91-4.08,5.41-3.75,8.37-5.31.63,1.36,1.9,2.83,1.7,4.06-.17,1-2.29,1.56-3.17,2.62-1.52,1.86-2.73,3.73,1.15,4.69,2.08.51,3.05,1,5.6.07,1.89-.67,2.81.24,2.83,2.13,0,2.75,0,5.5.06,8.25,0,1.5-.09,3,0,4.5.29,3,2.89,5.78,5.37,6,2.92.22,6-2.43,6.35-5.82.28-3-.2-6,.16-9,.27-2.22-2-6.17,2.79-6.08,4.16.08,2.25,3.64,2.56,5.75a41.24,41.24,0,0,1,.06,6Z" />
  <path class="cls-3" d="M585.81,670.47c0-3.75-.23-7.52.09-11.23.17-2,1.26-4.27,3.79-1.69,1.76,1.81,3.15.43,4.67-.21,2.91-1.23,5.64-1.77,8.2.91,1.77,1.84,3.4.72,5.26-.41,5-3.06,11-.52,11.58,5.17s.23,11.48.14,17.22c0,.72-1,1.42-1.5,2.12-.87-.65-2.41-1.24-2.49-2-.42-4.13-.63-8.3-.65-12.47,0-4.85-.78-6.51-3.63-6.78-3.12-.31-4.26.86-5,6.17-.57,3.87-.52,7.82-1,11.7-.15,1.19-1.07,3.07-1.93,3.25-2.49.5-2.56-1.54-2.56-3.39,0-4,.11-8-.14-12-.15-2.45-.57-5.25-3.72-5.67-3.38-.45-5,1.48-5.36,4.75-.23,2.2-.82,4.37-1,6.57s.28,4.56-.15,6.72c-.28,1.39-1.66,2.56-2.54,3.82-.64-1.2-1.72-2.35-1.84-3.6-.27-3-.08-6-.08-9Z" />
  <path class="cls-2" d="M796.31,787.51c0,2.73,0,5.46,0,8.18s-1.32,3.83-3.71,2.95a8.47,8.47,0,0,0-6.78.12c-4.31,1.76-8.18-.73-11.66-3.07-1.91-1.29-1.68-5.65.11-7.94a13.18,13.18,0,0,1,3-3.11c2.26-1.45,2.08-2.47-.19-3.52s-2.43-2.68-1.64-4.89c.73-2.05,1.63-3.5,4.05-3.52,3.22,0,6.45-.4,9.66-.25a7,7,0,0,1,7,6.87c.19,2.71,0,5.45,0,8.18Zm-12.84,7.2c2.31-1.53,4.41-2.54,6-4.11.74-.75.43-2.55.6-3.87-1.07,0-2.14.06-3.21.16s-2.41.41-3.63.46c-2.79.11-5.24,1-4.36,4.22C779.17,792.81,781.56,793.49,783.47,794.71ZM782.93,782a16.07,16.07,0,0,0,3.15-.2c1.45-.48,3.92-.93,4.07-1.74.48-2.58-2-1.9-3.53-2.31a7.75,7.75,0,0,1-2-.77c-2.08-1.31-3.18.24-4.19,1.52a4,4,0,0,0-.58,2.48A16.8,16.8,0,0,0,782.93,782Z" />
  <path class="cls-2" d="M709.48,775.55a13.37,13.37,0,0,0,3.19-1.19c7.48-5.21,15.25-2.64,20,5.95a1.11,1.11,0,0,1,.09.74c-1.25,5-1.91,10.17-4,14.77-1.51,3.4-8.72,4.3-12.67,2.62-5.84-2.5-8.69-8.9-7.38-16.39.38-2.18.55-4.39.82-6.59Zm18.39,11.61c-3.73,0-6.7-.2-9.62.11-1.13.12-2.89,1.31-3,2.2-.27,1.91.22,3.72,2.95,4.21C722.93,794.54,725.39,792.1,727.87,787.16ZM722,781.72l3.73-1.24a19,19,0,0,0-1.56-3.16c-1.62-2.18-3.84-2-6-1.1a6.32,6.32,0,0,0-2.32,1.71,2.24,2.24,0,0,0,1.5,3.77A46,46,0,0,0,722,781.72Z" />
  <path class="cls-2" d="M850,780c0,4.5,0,9,0,13.49,0,2.77-1.2,4-4,4.16-3.13.18-6.4,1.63-9.33,1.06-8.42-1.64-12.84-12-9-19.92,2.89-5.88,4.45-6.74,11.52-6.34,4.87.28,4.87.28,5.24-4.18,0-.5,0-1,0-1.5,0-2,.32-3.41,2.89-3.15s2.63,1.7,2.6,3.63c-.06,4.25,0,8.5,0,12.75Zm-5.35,6.18c-.14-2.45.32-4.34-.42-5.34-1.47-2-3.42-4.44-5.5-4.81-1.69-.3-5.25,1.91-5.55,3.47a31.87,31.87,0,0,0,.33,11.59c.21,1.11,2.92,2.11,4.63,2.5,2.25.51,4.6.05,5.46-2.6A38.91,38.91,0,0,0,844.68,786.15Z" />
  <path class="cls-2" d="M878.06,785.57c-.68,5-1.43,8.85-6.41,11.76-7.73,4.52-14.73-.08-17.45-6.66-1.05-2.56-.8-6-.21-8.82.85-4.15,3.5-8,7.5-9,4.81-1.18,10.67-2.27,14,3.2C877.07,778.76,877.23,782.36,878.06,785.57Zm-14,1.59c-.46.16-3,.28-4.15,1.6s3.63,5,6.64,5c.49,0,1-.05,1.46-.09,2.74-.22,4-2.09,3.76-4.42-.1-.84-2.48-1.47-3.89-2C867.23,787,866.42,787.16,864.05,787.16Zm1.19-5.32v-.11a26,26,0,0,0,4.42-.05c2-.34,2.43-1.93,1-3.09-1.55-1.31-3.81-2.94-5.45-2.66-2,.35-4.94,2.36-5.18,4-.43,3,2.78,1.46,4.44,1.91A3,3,0,0,0,865.24,781.84Z" />
  <path class="cls-3" d="M788.62,665.23c0,4.73.1,9.46-.08,14.18,0,1-1,2.61-1.69,2.72a50.07,50.07,0,0,1-10.13.82c-4.15-.21-7.37-2.09-8.81-6.47-2.27-6.93-2.52-16.57,7.42-19.46a9.74,9.74,0,0,1,3.57-.47,31.07,31.07,0,0,1,4.53,1.08c.18-1.69.39-3.39.52-5.09,0-.74-.29-1.59,0-2.21a19.5,19.5,0,0,1,1.87-2.89c1,1,2.64,1.86,2.7,2.86C788.77,655.26,788.62,660.25,788.62,665.23Zm-4.12,4.44a17,17,0,0,0-.74-3.95c-1.2-2.92-3.25-4.86-6.73-4.64s-4.77,2.42-5,5.35a31.13,31.13,0,0,0,.14,7.22c.44,3.27,2.42,5.41,5.82,5.65,2.69.19,5.69-2.93,6.31-6.28A30.65,30.65,0,0,0,784.5,669.67Z" />
  <path class="cls-3" d="M808.1,671.18a20,20,0,0,0-3,0c-1.89.27-3.76.69-5.64,1,.72,1.72,1.15,3.66,2.24,5.11,1.69,2.25,4.15,2.84,6.58,1.08,1.58-1.14,2.72-2.91,4.35-3.94.85-.53,2.33,0,3.52,0a10.7,10.7,0,0,1-.41,2.57c-1.92,4.54-5.79,6-10.3,6s-8.13-1.69-10.31-6.08c-3.46-7-1.44-15.44,4.77-18.84s12.47-1.43,15.62,4.93,2,8.14-5.17,8.07H808.1ZM805,667.43v0a9,9,0,0,0,2.21,0c1.46-.39,4-.76,4.1-1.5.46-2.49-1.29-4.15-3.72-4.55-1.63-.27-3.68-.48-5,.27s-2.22,2.79-3.29,4.26c1.4.52,2.79,1.09,4.21,1.55A4.81,4.81,0,0,0,805,667.43Z" />
  <path class="cls-3" d="M734.85,678c.86,4.19.86,4.08-3.52,3.91-1.93-.07-3.87.52-5.82.62-2.43.12-5.24.79-7.21-.16a11.42,11.42,0,0,1-5.14-5.67c-1.15-2.87.83-5.5,3.46-6.65a46.88,46.88,0,0,1,9.21-2.49c2.09-.44,4-.94,4-3.51-.07-2.77-2.42-2.79-4.33-3-2.54-.3-4.91-.15-6.52,2.45a5.38,5.38,0,0,1-3,1.69c-.51.15-1.43-.42-1.85-.92-.25-.29,0-1.14.23-1.67,2-5.17,11.61-8.65,17.28-4.18a10,10,0,0,1,3.1,6.24C735.19,669,734.85,673.51,734.85,678Zm-4.48-6.19c-.32-.23-1.09-1.19-1.63-1.07-3.08.65-6.29,1.17-9.1,2.5-2.41,1.13-1.79,4.7.72,5.85C724.65,681,730.52,677.15,730.37,671.77Z" />
  <path class="cls-3" d="M660.59,683.13c-8.25,0-14.19-6.77-13.05-14.18.71-4.64,2.34-8.92,7.35-11.31,6-2.83,11.42-1.35,14.46,6.68.24.63.48,1.26.69,1.9,1.52,4.58,1.38,4.8-3.63,4.92-3.48.08-7-.07-10.44.1-3.18.15-3.86,1.61-2.22,4.24,2.72,4.33,6.55,4.91,10.49,1.55,1.58-1.35,3.08-4.53,5.3-2.19,2.48,2.63-.83,4.64-2.55,5.83C664.88,682.14,662.06,682.61,660.59,683.13ZM653,667.42c3.56,0,7,.08,10.44,0,2.86-.09,2.21-1.46,1.42-3.44-1.08-2.68-3.14-3-5.38-3C655.73,661,653.5,663,653,667.42Z" />
  <path class="cls-1" d="M833.7,881.84c0,4.47,0,8.94,0,13.41,0,2.54-1,3.7-3.61,3.14a5.69,5.69,0,0,0-2.8-.11c-11.47,3.86-17-5.88-15.27-15,1.29-6.89,5.44-11.9,13.72-9.18,3.38,1.11,3.63,0,3.81-2.81.15-2.22-1.62-6.15,1.58-6.31,4-.21,2.43,4,2.6,6.43.24,3.46.06,7,.06,10.43ZM830,886.49c-.75-2.33-.92-4.82-2.23-6.35a7.86,7.86,0,0,0-5.55-2.52c-1.55.06-4.11,1.89-4.34,3.26-.59,3.56-1,7.56.07,10.92,1.44,4.66,7,4.94,9.77.77C828.91,890.82,829.29,888.57,830,886.49Z" />
  <path class="cls-1" d="M861,884.24c.21,3.68.28,7.38.69,11,.33,3.05-.48,4.07-3.69,3.39-2-.43-4.23-.06-6.34.07-1.72.1-3.45.66-5.13.52-4.12-.34-7.57-3.41-7.64-6.81-.07-3.74,2.44-6,5.55-7.12,2.75-1,5.84-1,8.68-1.83,1.18-.33,3-1.55,3-2.26-.07-1.19-1.23-3-2.27-3.3-3.33-.91-6.8-1.63-9.38,2.06-.55.78-2.37.68-3.6,1,.2-1.3,0-2.82.67-3.85,2-3.12,8.71-5.1,12.42-3.89C859.85,875.17,861,876.92,861,884.24Zm-12.77,11.82c2.22-.67,3.75-.84,5-1.55,2.26-1.35,4.13-6.22,2.79-6.83s-3.55,0-5.36.19a14,14,0,0,0-2.88.54c-2.26.72-4.43,2-3.26,4.64C845.1,894.44,847.13,895.2,848.25,896.06Z" />
  <path class="cls-2" d="M822.91,787.37a61.91,61.91,0,0,1-.16,8.94c-.14,1-2.11,1.65-3.24,2.47-.61-.94-1.69-1.85-1.74-2.81q-.33-7.1-.16-14.21c.09-3.58-2.11-4-4.83-4s-5,.38-4.94,3.91c0,2.5-.05,5-.08,7.48,0,1.5.44,3.18-.1,4.45-.81,1.89-2.3,3.49-3.5,5.21-1.89-1.42-2.38-3.06-2.2-5.6.31-4.66-.42-9.38-.38-14.08,0-5.37.59-5.75,6.08-6.15a59.5,59.5,0,0,1,8.09-.46c4.42.28,7.07,3,7.37,7.4.17,2.48,0,5,0,7.48Z" />
  <path class="cls-2" d="M748.37,785.48a37.17,37.17,0,0,1,0-4.48c.36-2.79.91-5.55,1.39-8.33,4.64,0,9.3-.25,13.92.11,1.34.1,2.58,1.87,3.81,2.93.54.46,1.36,1.06,1.37,1.61.08,6.72.1,13.44-.1,20.15,0,.47-2,1.38-2.91,1.18a3.3,3.3,0,0,1-2-2.44c-.26-4.22-.16-8.46-.26-12.7-.12-5.31-1.07-6.06-6-5.67-2.51.2-3.6,1.39-3.64,3.73-.06,3.23.11,6.47-.12,9.69a15.63,15.63,0,0,1-1.38,5.52c-.41.87-1.89,1.22-2.89,1.81-.36-.88-.77-1.75-1.07-2.65a4.84,4.84,0,0,1-.14-1.48Q748.37,790,748.37,785.48Z" />
  <path class="cls-3" d="M687.56,669.72q0-3.75,0-7.5c0-3.1-.91-7.12,4.56-3.61.74.48,2.62-.78,4-1.25,6-2.12,10.54,0,11.65,6.36.92,5.34.69,10.9.71,16.36,0,.75-1.82,2.28-2.18,2.11-1.06-.49-2.48-1.6-2.55-2.56-.28-4-.07-8-.14-12-.05-3.09-.26-6.17-4.41-6.56-3.85-.37-6.32,1.57-6.8,6.17-.41,4,0,8-.26,12-.07,1.11-1.34,2.13-2.06,3.19-.83-1-2.27-1.91-2.37-3C687.36,676.23,687.56,673,687.56,669.72Z" />
  <path class="cls-1" d="M890.89,873.29c1.21.41,3.78.83,5.78,2.13,1,.65,1,2.9,1.37,4.42-1.32-.07-3.26.38-3.85-.31-2.41-2.8-5.26-2.54-8.22-1.76-2.08.55-2.46,2.6-.7,3.87a16.52,16.52,0,0,0,4,1.81c2.33.85,5,1.17,6.94,2.51,1.63,1.11,3.54,3.48,3.38,5.1-.23,2.39-1.63,5.41-3.53,6.73-4.27,3-9.19,1.63-13.62-.18-1.28-.53-2.09-2.64-2.7-4.18a2.77,2.77,0,0,1,1-2.43,2.7,2.7,0,0,1,2.49.27c1.17.88,1.92,2.3,3.08,3.18a5,5,0,0,0,7.14-.77c1.46-1.93,1.81-3.59-1.16-4.4-2.16-.59-4.31-1.21-6.44-1.9-4.74-1.54-6.35-3.52-6-7.23.44-4.25,2.49-6.08,7.5-6.66C888.11,873.4,888.87,873.4,890.89,873.29Z" />
  <path class="cls-1" d="M942.88,886.61c0-1.75,0-3.49,0-5.24,0-5.77,0-5.7,5.91-6.34,2.91-.31,5.77-1.26,8.67-1.32,2.31-.05,4.46,1.16,4.66,3.92.45,6.34.84,12.69,1,19,0,.75-1.39,1.54-2.14,2.32-.71-.9-2-1.77-2-2.7-.25-4.73,0-9.49-.28-14.21-.23-4-3.07-5.79-6.67-4.38a5.68,5.68,0,0,0-3,3,29.52,29.52,0,0,0-1.32,7.26c-.21,2.73.2,5.52-.18,8.21-.16,1.07-1.74,1.93-2.67,2.88-.68-.9-1.88-1.77-2-2.72-.24-3.22-.09-6.48-.09-9.72Z" />
  <path class="cls-3" d="M741.31,669.71c0-2.5,0-5,0-7.5.07-3-.72-7.09,4.69-3.68.77.49,2.63-.71,4-1.16,6.15-2,11.18.93,11.68,7.3a129.07,129.07,0,0,1,0,15c0,.93-1.23,1.82-1.89,2.73-.78-1-2.17-1.94-2.24-3-.28-4.23-.15-8.49-.21-12.74,0-3.06-1-5.37-4.61-5.53-3.44-.15-5.85,1.25-6.33,4.88-.55,4.18-.32,8.46-.38,12.7,0,1.76.36,3.74-2.33,3.72s-2.42-1.89-2.39-3.72c.06-3,0-6,0-9Z" />
  <path class="cls-1" d="M916.66,887a11.06,11.06,0,0,0-2.23,0c-2.06.44-4.11,1-6.16,1.49a29.27,29.27,0,0,0,2.39,5c1.92,2.66,4.8,2.15,7.49,1.55.61-.13,1.09-.94,1.57-1.49,1.46-1.66,2.94-4.05,5.21-1.67.41.44-1.42,3.92-2.92,5.12-5.92,4.78-15.71,1.3-17.85-5.94-1.69-5.72-1-10.86,3.41-15,5.87-5.48,16.06-2.53,18,5,1.17,4.55.29,5.71-4.43,5.81-1.49,0-3,0-4.47,0Zm-8.76-3.4c4.48,0,8.17.06,11.86,0,2.54,0,1.81-1.52,1.15-2.95-1.24-2.64-3.49-3.21-6.14-3.29C911.06,877.19,909.7,879.74,907.9,883.56Z" />
  <path class="cls-3" d="M645.76,659c-.28.66-.41,1.42-.64,1.46-5.78.89-4,5.38-4,8.74s-1.41,7.71,3.55,9.54a2.68,2.68,0,0,1,1.06,2.4c-.21.68-1.36,1.31-2.22,1.52-3.82.91-6.25-.66-6.69-4.61-.36-3.2-.14-6.46-.31-9.68-.15-2.8,1.16-6-2.32-8-.36-.21,0-2.11.36-3.09a19.39,19.39,0,0,1,2.07-3.76c1-1.52,2.19-3,3.29-4.41a21.51,21.51,0,0,0,1.35,4.75,21.94,21.94,0,0,0,3.26,3.66C645,658,645.39,658.54,645.76,659Z" />
  <path class="cls-2" d="M709.57,775.46c-.29.07-9.29,3.64-9.31,3.72-.65,2.85-1.45,5.67-1.9,8.54-.57,3.63-.85,7.3-1.32,11.5-3.42-1.5-5-3.2-4.88-6.42q.21-8.2-.07-16.42c-.08-2.59,1-3.76,3.4-3.78a87.4,87.4,0,0,1,10.86.35c1.13.13,2.09,1.69,3.13,2.6Z" />
  <path class="cls-2" d="M889.47,772.44c1,0,2.11-.29,2.95.07,1.13.48,2.84,1.44,2.86,2.23,0,1-1.24,3-2.12,3.06-6.4.69-5.86,5.78-6.48,10-.46,3.19-.3,6.46-.57,9.68,0,.47-.91,1-1.5,1.23-.23.09-1-.46-1.11-.86-.84-2-2.06-4.09-2.24-6.21a56,56,0,0,1,.1-11.93C882.25,772.92,882.48,773,889.47,772.44Z" />
  <path class="cls-3" d="M821.49,669.81v-5.94c0-5,0-4.91,5.48-5.41,1.08-.09,2-1.31,3.15-1.67,2.15-.68,5.16.86,5.11,2.61-.08,2.33-1.63,2.46-3.61,2.23-3.26-.38-4.34,1.88-4.56,4.58-.35,4.18-.5,8.37-.72,12.55-.09,1.71.22,3.66-2.47,3.58s-2.46-1.78-2.42-3.63c.08-3,0-5.93,0-8.9Z" />
  <path class="cls-2" d="M736.62,785.42c0-3.49-.14-7,.1-10.47.06-.81,1.54-2.26,2.14-2.15,1.16.21,3,1.28,3.07,2.06.25,6.47.27,13,0,19.45-.05,1.21-1.36,2.52-2.35,3.52-1.68,1.67-2.74.68-2.82-1.2-.16-3.73,0-7.47,0-11.21Z" />
  <path class="cls-3" d="M680.65,670.06a72.12,72.12,0,0,1-.09,8.19c-.17,1.44-1.07,3.78-2,4-2.72.52-2.17-2-2.19-3.56-.09-6-.14-11.94,0-17.91,0-1.15,1.08-3.14,1.86-3.24,2.55-.32,2.34,1.88,2.36,3.6,0,3,0,6,0,9Z" />
  <path class="cls-3" d="M624.25,669.83c0-3.48-.08-7,.08-10.45,0-.69,1.19-2,1.52-1.88,1,.28,2.56,1.09,2.58,1.72q.27,10.81,0,21.62c0,.54-1.77,1.23-2.79,1.42-.32.06-1.27-1.27-1.3-2-.14-3.47-.06-7-.06-10.44Z" />
  <path class="cls-1" d="M931.65,886.46c0-3.48-.1-7,.09-10.46,0-.58,1.32-1.53,2-1.52s2.09.93,2.11,1.48q.21,10.47,0,20.93c0,.56-1.61,1.7-2,1.52-.9-.38-2.07-1.4-2.13-2.23-.24-3.23-.1-6.48-.1-9.72Z" />
  <path class="cls-2" d="M684.19,765.2a23.53,23.53,0,0,1-2.42,3.26,1.86,1.86,0,0,1-1.75-.39c-2.19-3.7-4.23-2.05-6.49-.07a2.92,2.92,0,0,1-2.32.2,11.13,11.13,0,0,1-1-4.14c0-.43,1.75-1.43,2.2-1.19a8.17,8.17,0,0,0,8.35,0C681.29,762.6,682.84,764.23,684.19,765.2Z" />
  <path class="cls-2" d="M738.67,760.18c1.44,2.77,2.84,4.47,3.18,6.36.44,2.45-1.88,2.86-3.44,2.29-2.71-1-1.91-3.5-1.5-5.58C737.06,762.52,737.67,761.89,738.67,760.18Z" />
  <path class="cls-1" d="M937.66,867.07c-1.88,1.19-2.93,2.22-4.14,2.44-.48.09-1.82-1.57-1.81-2.42s1.33-2.5,1.86-2.41C934.75,864.86,935.8,865.9,937.66,867.07Z" />
  <path class="cls-3" d="M678.83,653.66c-1.18-1.51-2.22-2.28-2.31-3.14s.91-1.63,1.43-2.44c.9.64,2.27,1.12,2.55,2S679.71,651.89,678.83,653.66Z" />
  <path class="cls-3" d="M626.9,647c.83,1.79,1.58,2.73,1.61,3.69,0,.6-1.38,1.85-1.57,1.75-.93-.52-2.16-1.28-2.34-2.15C624.46,649.64,625.69,648.67,626.9,647Z" />
  <path class="cls-1" d="M1127.74,484.85c-4.27,7.46-8.21,14.31-12.12,21.18q-17.88,31.43-35.69,62.9c-1.52,2.68-4.35,6.31-1,8.65,2.85,2,5.44-1.66,7.3-3.79a235.39,235.39,0,0,0,15.58-19c8.52-12.09,20.11-19.68,33.83-24.23a27,27,0,0,1,11.64-1.07c6.28.84,8.82,6.32,6.5,12.28a14.89,14.89,0,0,1-8.78,8.68c-7.88,3-16,5.56-24,8-2.69.83-5.19,1.32-6.42,4.33-1.61,3.9-4,7.58-3,12.08.63,2.84,3.35,4.46,7.07,3.93a23.84,23.84,0,0,0,13.41-6.09c5-4.81,10.32-9.49,14.64-14.9a88.05,88.05,0,0,1,34.36-26.44c5.62-2.43,11.66-4.9,17.38.25.29.26,1,.57,1.1.47,4.19-5,9.7-1.2,15.39-2.91-3.46,10.09-10.11,17.21-14.51,25.57s-9.32,16.3-13.67,24.77c6.94-3.58,12.42-9,17.81-14.36,5.07-5,9.75-10.49,14.38-15.94,7.48-8.8,17.15-14.33,27.69-18.26a29.57,29.57,0,0,1,13.07-1.49c6.74.76,9.28,6.66,6.45,12.8a15.22,15.22,0,0,1-8.53,8c-7.39,2.84-14.94,5.35-22.55,7.59-7,2-11.59,8-11.14,15.28.24,3.88,2.28,5.83,6.34,5.68a19.59,19.59,0,0,0,13-5c6.31-6,12.19-12.45,18.21-18.75,1.36-1.43,2.34-3.33,3.9-4.45.87-.63,2.59-.09,3.92-.07-.09,1.09.23,2.49-.33,3.22-7.83,10.3-15.76,20.51-27.35,27-13.8,7.75-24,3.78-28.73-11.22a16.84,16.84,0,0,0-1.34-2.6l-17.66,13.92c-.79.61-1.45,1.54-2.33,1.86-7.73,2.72-11.14,9.27-14.8,15.86-8.32,14.95-18.61,28.29-33.14,37.83-5.85,3.84-11.84,7.25-19.2,7.47-9.51.28-14.39-5.75-11.71-14.81,2.07-7,6.5-12.28,12-16.74,10.33-8.35,21.94-14.53,34.08-19.76,5.39-2.32,10.25-5,12-11.82-5.37,3.16-11.51,5.94-16.66,2.16s-7.22-10-6.8-16.25c-6.19,4.76-12.11,10-18.69,14.24-12.34,7.9-24.48,2.58-28.08-9.55a17.15,17.15,0,0,0-1.44-2.91c-4,3.81-7.66,7.52-11.56,10.94-6.18,5.41-11.56,6.41-16.23,3.34-4.28-2.82-6.6-10.63-4-17s6.21-12.42,9.54-18.51c2.26-4.14,4.8-8.12,7.21-12.15-.54-.49-.84-1-1.16-1-11.44-.68-11.35-.63-16.76,9.81-8.92,17.24-17.13,35.08-29.89,49.84-11.87,13.73-25.79,25.54-42.74,32.85-3.94,1.7-8.74,1.57-13.17,1.87-1.56.1-3.31-.86-4.76-1.7a2.8,2.8,0,0,1-1-2.49,3.4,3.4,0,0,1,2.1-1.73,6.6,6.6,0,0,1,3-.06c11.69,1.75,21-3.42,29.07-10.83a71.57,71.57,0,0,0,13.44-15.86c11.86-20.14,23.06-40.66,34.72-61.42a40.55,40.55,0,0,1-5.58-.58c-1-.23-1.81-1.19-2.7-1.82.93-.93,1.84-1.87,2.8-2.77a.9.9,0,0,1,.73-.07c6.47,1.49,9.29-2.72,12.19-7.39a171.67,171.67,0,0,1,23.79-29.62c5.1-5.17,10.69-9.89,17.85-11.9,3-.84,2.65-2.43,2-4.42-2.63-7.85-10.41-13.3-19.55-13.73-10.54-.51-20.12,2.08-30.55,8.28,2.23,2.37,4.53,4.64,6.64,7.07,8,9.26,8.41,24.13,1,34-12.14,16.26-30.53,17.29-43.91,10.32-2.15-1.13-2.82-1-3.85,1-2.77,5.55-5.8,11-8.63,16.49-14,27.27-37.64,41-66.57,46.67-11.63,2.28-22.85.06-32.25-8.11-6.39-5.57-7.79-15.07-3-21.55a9.78,9.78,0,0,1,2-2.23c3.14-2.3,6.53-3.59,10.36-1.71,2.86,1.4,4.11,4.89,3.31,9-.89,4.66-2.61,6.46-7.12,7.35-1.17.24-2.38.28-4.07.46,3.82,8.24,11,10.69,18.42,11.2,19.32,1.32,34.26-6.86,46.73-21.55,13.41-15.78,23.27-33.93,35.73-50.29,10.55-13.86,21.44-27.45,35.67-37.95-8.43-6.62-18.24-8.76-28.11-9.64-40.4-3.58-70.92,13.32-93.22,46.3-3.64,5.38-5.31,11.64-6.72,18.06-2.83,12.91,6,26.11,23.53,24.85a46.44,46.44,0,0,0,22.38-7.51c9.23-6.07,17.84-12.7,24.28-21.81,4.69-6.64,8.1-13.7,7.39-22.17-.51-6.07-3.17-9.21-9.25-9.51a24.93,24.93,0,0,0-10.21,1.38,58.42,58.42,0,0,0-33.5,33.17c-3,7.38-1.9,9.69,5.23,13.49.91.49,1.45,1.7,2.16,2.57-1.12.81-2.18,2.17-3.38,2.31-4.55.55-9.66-3.82-11.4-9.08a22,22,0,0,1,1-16.77c9.15-18.73,24.09-30.07,44.93-33A24.77,24.77,0,0,1,993,484c7.28,2,9.93,5.92,10.67,13.39,1,10.67-2.92,19.62-9.29,27.59-10.91,13.65-23.89,24.62-41.23,29.33-7.62,2.07-15.12,2.18-22.74-.63-14.1-5.21-20.18-18.65-17.85-34.73,2.22-15.37,11-27,22.38-36.82a112.6,112.6,0,0,1,42.83-23.5,104.82,104.82,0,0,1,49.65-2.39c8.13,1.58,15.9,3.89,22.82,8.43,2.8,1.83,4.79,1.34,7.43-.21,9.17-5.4,19-8.73,29.83-8.24,11.51.52,20.61,5.23,25.63,16.07a27.81,27.81,0,0,1,2.3,8.6c.39,3.62,2.18,4.65,5.46,4.3C1122.87,485,1124.86,485,1127.74,484.85ZM1057.67,492a23.47,23.47,0,0,0-3.69-15.67c-.89-1.4-1.93-2.22-3.54-.86-1,.81-2,1.46-2.92,2.33-10.43,10.2-18,22.48-25.11,35.05-.86,1.51-.79,2.44,1,3.52,6.27,3.8,18.05,4.61,25-2.39C1054.48,507.89,1058.34,501,1057.67,492Zm103.45,106.44-1.23-1c-6.32,3.46-13,6.46-18.89,10.49a145.48,145.48,0,0,0-18.48,14.92c-2.49,2.37-4.08,6.23-4.89,9.68-1,4.37,1.44,6.92,5.9,6.09,4-.75,8.44-2.1,11.58-4.58C1147.06,624.63,1154,611.44,1161.12,598.47Zm32.77-58.56c.63-5.28-.76-6.45-4.52-5.06a16.22,16.22,0,0,0-5.24,2.71c-3.89,3.43-8,6.77-11.15,10.86a145.74,145.74,0,0,0-12.91,19.85c-1.5,2.82-3.64,7.76.5,10.09,3.42,1.92,6.39-1.51,8.75-4,8.3-8.9,15.89-18.35,21.92-29C1192.45,543.23,1193.39,541,1193.89,539.91Zm-117-15.43c8.79-9,17.65-17.93,26.31-27.06a40.42,40.42,0,0,0,5.42-8c.64-1.12.41-2.72.57-4.1-1.35.18-2.94,0-4,.61a27,27,0,0,0-5.86,4.6A127.08,127.08,0,0,0,1076.86,524.48ZM1231.8,552.2c9.12-1.28,16.53-5.54,23-11.25,1.59-1.4,2-4.16,3-6.3-2.28.45-5.11.18-6.76,1.45C1244.43,541.21,1238.18,546.8,1231.8,552.2Zm-112.41-.07c9.14-1.28,16.06-5.55,22.46-10.71,2.08-1.67,4.31-3.82,2.82-6.68-.25-.47-4.73.38-6.43,1.7C1131.77,541.43,1125.64,546.86,1119.39,552.13Zm-22.87-37.79-21.12,13.82c11.62,2,11.62,2,17.08-7.09C1093.59,519.22,1094.7,517.36,1096.52,514.34Z" />
</svg>
